<?xml version="1.0" encoding="UTF-8" standalone="no"?>
<!DOCTYPE svg PUBLIC "-//W3C//DTD SVG 1.1//EN"
 "http://www.w3.org/Graphics/SVG/1.1/DTD/svg11.dtd">
<!-- Generated by graphviz version 2.36.0 (20140111.2315)
 -->
<!-- Title: models_diagram Pages: 1 -->
<svg width="309pt" height="304pt"
 viewBox="0.00 0.00 309.00 304.00" xmlns="http://www.w3.org/2000/svg" xmlns:xlink="http://www.w3.org/1999/xlink">
<g id="graph0" class="graph" transform="scale(1 1) rotate(0) translate(4 300)">
<title>models_diagram</title>
<polygon fill="white" stroke="none" points="-4,4 -4,-300 305,-300 305,4 -4,4"/>
<!-- Favorite -->
<g id="node1" class="node"><title>Favorite</title>
<path fill="none" stroke="black" d="M20.4946,-1C20.4946,-1 129.505,-1 129.505,-1 135.505,-1 141.505,-7 141.505,-13 141.505,-13 141.505,-117 141.505,-117 141.505,-123 135.505,-129 129.505,-129 129.505,-129 20.4946,-129 20.4946,-129 14.4946,-129 8.49463,-123 8.49463,-117 8.49463,-117 8.49463,-13 8.49463,-13 8.49463,-7 14.4946,-1 20.4946,-1"/>
<text text-anchor="middle" x="75" y="-113.8" font-family="Times,serif" font-size="14.00">Favorite</text>
<polyline fill="none" stroke="black" points="8.49463,-107 141.505,-107 "/>
<text text-anchor="start" x="16.4946" y="-91.8" font-family="Times,serif" font-size="14.00">id :integer</text>
<text text-anchor="start" x="16.4946" y="-77.8" font-family="Times,serif" font-size="14.00">movie_id :integer</text>
<text text-anchor="start" x="16.4946" y="-63.8" font-family="Times,serif" font-size="14.00">user_id :integer</text>
<text text-anchor="start" x="16.4946" y="-49.8" font-family="Times,serif" font-size="14.00">rating :integer</text>
<text text-anchor="start" x="16.4946" y="-35.8" font-family="Times,serif" font-size="14.00">comment :text</text>
<text text-anchor="start" x="16.4946" y="-21.8" font-family="Times,serif" font-size="14.00">created_at :datetime</text>
<text text-anchor="start" x="16.4946" y="-7.8" font-family="Times,serif" font-size="14.00">updated_at :datetime</text>
</g>
<!-- Movie -->
<g id="node2" class="node"><title>Movie</title>
<path fill="none" stroke="black" d="M180.495,-181C180.495,-181 289.505,-181 289.505,-181 295.505,-181 301.505,-187 301.505,-193 301.505,-193 301.505,-269 301.505,-269 301.505,-275 295.505,-281 289.505,-281 289.505,-281 180.495,-281 180.495,-281 174.495,-281 168.495,-275 168.495,-269 168.495,-269 168.495,-193 168.495,-193 168.495,-187 174.495,-181 180.495,-181"/>
<text text-anchor="middle" x="235" y="-265.8" font-family="Times,serif" font-size="14.00">Movie</text>
<polyline fill="none" stroke="black" points="168.495,-259 301.505,-259 "/>
<text text-anchor="start" x="176.495" y="-243.8" font-family="Times,serif" font-size="14.00">id :integer</text>
<text text-anchor="start" x="176.495" y="-229.8" font-family="Times,serif" font-size="14.00">imdbID :string</text>
<text text-anchor="start" x="176.495" y="-215.8" font-family="Times,serif" font-size="14.00">title :string</text>
<text text-anchor="start" x="176.495" y="-201.8" font-family="Times,serif" font-size="14.00">created_at :datetime</text>
<text text-anchor="start" x="176.495" y="-187.8" font-family="Times,serif" font-size="14.00">updated_at :datetime</text>
</g>
<!-- User -->
<g id="node3" class="node"><title>User</title>
<path fill="none" stroke="black" d="M11.936,-167C11.936,-167 138.064,-167 138.064,-167 144.064,-167 150.064,-173 150.064,-179 150.064,-179 150.064,-283 150.064,-283 150.064,-289 144.064,-295 138.064,-295 138.064,-295 11.936,-295 11.936,-295 5.93604,-295 -0.0639648,-289 -0.0639648,-283 -0.0639648,-283 -0.0639648,-179 -0.0639648,-179 -0.0639648,-173 5.93604,-167 11.936,-167"/>
<text text-anchor="middle" x="75" y="-279.8" font-family="Times,serif" font-size="14.00">User</text>
<polyline fill="none" stroke="black" points="-0.0639648,-273 150.064,-273 "/>
<text text-anchor="start" x="7.93604" y="-257.8" font-family="Times,serif" font-size="14.00">id :integer</text>
<text text-anchor="start" x="7.93604" y="-243.8" font-family="Times,serif" font-size="14.00">display_name :string</text>
<text text-anchor="start" x="7.93604" y="-229.8" font-family="Times,serif" font-size="14.00">email :string</text>
<text text-anchor="start" x="7.93604" y="-215.8" font-family="Times,serif" font-size="14.00">password_digest :string</text>
<text text-anchor="start" x="7.93604" y="-201.8" font-family="Times,serif" font-size="14.00">remember_token :string</text>
<text text-anchor="start" x="7.93604" y="-187.8" font-family="Times,serif" font-size="14.00">created_at :datetime</text>
<text text-anchor="start" x="7.93604" y="-173.8" font-family="Times,serif" font-size="14.00">updated_at :datetime</text>
</g>
<!-- User&#45;&gt;Favorite -->
<g id="edge1" class="edge"><title>User&#45;&gt;Favorite</title>
<path fill="none" stroke="#199fe2" d="M75,-158.477C75,-152.242 75,-145.924 75,-139.672"/>
<ellipse fill="none" stroke="#199fe2" cx="75" cy="-162.593" rx="4" ry="4"/>
<polygon fill="#199fe2" stroke="#199fe2" points="75.0001,-139.238 79.5,-129.238 75,-134.238 75,-129.238 75,-129.238 75,-129.238 75,-134.238 70.5,-129.238 75.0001,-139.238 75.0001,-139.238"/>
</g>
</g>
</svg>
